<svg 
        width="64px" 
        height="64px" 
        viewBox="0 0 64 64" 
        xmlns="http://www.w3.org/2000/svg"
>
<title>food</title>
<g id="food">
<circle cx="57.5" cy="6.5" r="2.5" style="fill:none;stroke:#4c245d;stroke-linecap:round;stroke-linejoin:round;stroke-width:2px"/>
<circle cx="24.5" cy="23.5" r="21.5" style="fill:#e5efef"/>
<line x1="22.837" y1="6.663" x2="19.163" y2="10.337" style="fill:#de1f69;stroke:#4c241d;stroke-linecap:round;stroke-linejoin:round;stroke-width:2px"/>
<line x1="19.163" y1="6.663" x2="22.837" y2="10.337" style="fill:#de1f69;stroke:#4c241d;stroke-linecap:round;stroke-linejoin:round;stroke-width:2px"/>
<circle cx="17" cy="14" r="1" style="fill:#4c241d"/>
<path d="M8.756,34c2.173,11.259,8.827,20.117,17.276,23H22v3H42V57H37.968c8.449-2.883,15.1-11.741,17.276-23" style="fill:#fff;stroke:#4c241d;stroke-linecap:round;stroke-linejoin:round;stroke-width:2px"/>
<circle cx="25" cy="25" r="6" style="fill:#bf7e68;stroke:#4c241d;stroke-linecap:round;stroke-linejoin:round;stroke-width:2px"/>
<circle cx="32.5" cy="19.5" r="7.5" style="fill:#f4aeab;stroke:#4c241d;stroke-linecap:round;stroke-linejoin:round;stroke-width:2px"/>
<circle cx="40" cy="25" r="6" style="fill:#e2e2e2;stroke:#4c241d;stroke-linecap:round;stroke-linejoin:round;stroke-width:2px"/>
<path d="M25,31a6,6,0,0,0-12,0Z" style="fill:#77b052;stroke:#4c241d;stroke-linecap:round;stroke-linejoin:round;stroke-width:2px"/>
<path d="M38,31a6,6,0,0,0-12,0Z" style="fill:#ffce56;stroke:#4c241d;stroke-linecap:round;stroke-linejoin:round;stroke-width:2px"/>
<path d="M51,31a6,6,0,0,0-12,0Z" style="fill:#816982;stroke:#4c241d;stroke-linecap:round;stroke-linejoin:round;stroke-width:2px"/>
<path d="M61,60a6,6,0,0,0-12,0Z" style="fill:#e66353;stroke:#4c241d;stroke-linecap:round;stroke-linejoin:round;stroke-width:2px"/>
<polygon points="27.771 40.271 30.378 40.554 32.021 38.51 33.664 40.554 36.271 40.271 35.987 42.878 38.031 44.521 35.987 46.164 36.271 48.771 33.664 48.487 32.021 50.531 30.378 48.487 27.771 48.771 28.054 46.164 26.01 44.521 28.054 42.878 27.771 40.271" style="fill:#ffce56;stroke:#4c241d;stroke-linecap:round;stroke-linejoin:round;stroke-width:2px"/>
<path d="M14.78,34H8.5A1.5,1.5,0,0,1,7,32.5H7A1.5,1.5,0,0,1,8.5,31h47A1.5,1.5,0,0,1,57,32.5h0A1.5,1.5,0,0,1,55.5,34H22" style="fill:#fff;stroke:#4c241d;stroke-linecap:round;stroke-linejoin:round;stroke-width:2px"/>
<line x1="26" y1="57" x2="31" y2="57" style="fill:none;stroke:#4c241d;stroke-linecap:round;stroke-linejoin:round;stroke-width:2px"/><line x1="60" y1="60" x2="5" y2="60" style="fill:none;stroke:#4c241d;stroke-linecap:round;stroke-linejoin:round;stroke-width:2px"/></g></svg>